<?xml version="1.0" standalone="no"?>
<!DOCTYPE svg PUBLIC "-//W3C//DTD SVG 20010904//EN"
 "http://www.w3.org/TR/2001/REC-SVG-20010904/DTD/svg10.dtd">
<svg version="1.0" xmlns="http://www.w3.org/2000/svg"
 width="512.000000pt" height="512.000000pt" viewBox="0 0 512.000000 512.000000"
 preserveAspectRatio="xMidYMid meet">

<g transform="translate(0.000000,512.000000) scale(0.100000,-0.100000)"
fill="#000000" stroke="none">
<path d="M69 5017 c-39 -26 -69 -79 -69 -122 0 -16 11 -72 25 -122 56 -211
152 -420 275 -604 106 -159 88 -146 162 -116 118 47 210 62 368 61 166 -1 274
-18 419 -68 53 -19 103 -36 111 -40 11 -5 27 14 60 66 25 40 86 135 136 211
l92 137 -26 6 c-538 125 -923 284 -1317 543 -95 63 -112 71 -154 71 -33 0 -59
-7 -82 -23z"/>
<path d="M4794 4957 c-243 -157 -452 -262 -714 -361 -136 -51 -377 -124 -505
-151 -110 -24 -112 -26 -82 -61 13 -16 75 -108 137 -204 62 -96 113 -176 114
-177 1 -1 43 13 93 32 150 56 274 78 453 79 163 1 266 -17 378 -65 35 -15 48
-17 59 -7 24 20 159 227 206 318 63 120 130 296 163 427 l28 111 -20 48 c-25
63 -70 94 -134 94 -42 0 -61 -9 -176 -83z"/>
<path d="M2117 4369 c-68 -16 -147 -60 -207 -116 -49 -45 -121 -150 -392 -571
-182 -284 -340 -537 -349 -563 -42 -111 -40 -131 76 -664 58 -269 108 -500
111 -512 5 -20 11 -16 54 36 191 230 504 400 850 463 162 29 438 29 600 0 347
-63 658 -233 850 -464 l48 -57 11 47 c6 26 54 245 108 487 107 490 115 561 76
660 -11 28 -169 283 -351 567 -271 421 -343 526 -392 571 -62 58 -138 99 -211
116 -55 13 -828 13 -882 0z"/>
<path d="M698 3810 c-107 -19 -224 -70 -333 -143 -107 -73 -300 -274 -358
-374 -10 -17 117 -176 215 -268 186 -176 369 -264 559 -268 42 -1 80 1 83 4 3
3 -1 39 -10 80 -29 133 -4 318 58 444 11 22 78 131 149 241 71 111 129 206
129 212 0 11 -94 42 -186 61 -73 15 -251 21 -306 11z"/>
<path d="M4225 3814 c-158 -21 -295 -56 -295 -76 0 -6 58 -101 129 -212 148
-230 160 -254 192 -356 19 -61 24 -97 23 -195 0 -66 -6 -140 -13 -164 -7 -23
-9 -46 -6 -50 12 -12 161 -3 225 14 143 37 280 119 417 249 98 93 226 252 216
269 -31 54 -128 168 -205 243 -138 133 -257 208 -403 253 -68 21 -214 34 -280
25z"/>
<path d="M2455 2164 c-394 -40 -698 -199 -866 -453 -71 -107 -102 -209 -102
-341 -2 -170 58 -318 182 -452 72 -78 173 -158 200 -158 10 0 48 15 87 34 85
42 209 80 334 103 131 23 409 23 545 -1 114 -20 289 -75 354 -112 24 -13 51
-24 61 -24 28 0 128 79 201 158 72 78 136 189 165 287 29 97 24 249 -11 354
-98 290 -409 518 -796 585 -90 16 -286 27 -354 20z m-233 -581 c36 -22 64 -66
73 -113 14 -83 -85 -182 -168 -166 -112 21 -167 139 -107 231 42 63 137 86
202 48z m830 0 c67 -40 91 -135 52 -204 -25 -45 -102 -84 -147 -75 -139 26
-180 201 -65 275 42 26 118 28 160 4z"/>
<path d="M2410 609 c-121 -13 -229 -42 -339 -93 -53 -24 -109 -47 -124 -50
-22 -5 -27 -11 -22 -24 4 -9 12 -44 19 -76 8 -38 19 -64 32 -72 27 -18 564
-214 585 -214 22 0 556 196 583 214 12 8 24 34 32 72 7 32 15 67 19 76 5 13 0
19 -22 24 -15 3 -71 26 -123 50 -117 54 -213 79 -355 93 -121 12 -162 12 -285
0z"/>
</g>
</svg>
